# xmcd
#
# Track frame offsets: 
#        150
#        12263
#        25403
#        36756
#        47563
#        56273
#        68111
#        79215
#        91229
#        99782
#        110599
#        122790
#        133519
#        145128
#        156374
#        169101
#        180664
#        190802
#        201215
#        211051
#        223848
#        234063
#        243849
#        255579
#        268417
#        281909
#        294542
#        305830
#        317157
#
# Disc length: 4394 seconds
#
# Revision: 0
# Processed by: cddbd v1.5.2PL0 Copyright (c) Steve Scherf et al.
# Submitted via: ExactAudioCopyFreeDBPlugin 1.0
#
DISCID=a611281d
DTITLE=Don Covay - Rockin' and Doowoppin'
DYEAR=2015
DGENRE=R&B
TTITLE0=Shirley (The Rainbows)
TTITLE1=Stay (The Rainbows)
TTITLE2=They Say (The Rainbows)
TTITLE3=Minnie (The Rainbows)
TTITLE4=Bip Bop Bip (Pretty Boy)
TTITLE5=Paper Dollar (Pretty Boy)
TTITLE6=Switchin' in the Kitchen (Pretty Boy and Lee Simms Orch.)
TTITLE7=Rockin' the Mule (Pretty Boy and Lee Simms Orch.)
TTITLE8=Oh My Soul
TTITLE9=Standing in the Doorway (Don "Pretty Boy" Covay)
TTITLE10=I'm Lonely Too (Don "Pretty Boy" Covay)
TTITLE11=Betty Jean
TTITLE12=Believe it or not
TTITLE13=Beauty and the Beast
TTITLE14=Cause I Love You
TTITLE15=Hey There
TTITLE16=I'm Coming Down with the Blues
TTITLE17=Pony Time (Don Covay and The Goodtimers)
TTITLE18=Love Boat (Don Covay and The Goodtimers)
TTITLE19=It's Twistin' Time (The Goodtimers)
TTITLE20=Twistin' Train (The Goodtimers)
TTITLE21=Shake with the Shake
TTITLE22=Every Which a Way
TTITLE23=Hand Jive Workout (Don Covay and The Goodtimers)
TTITLE24=See About Me (Don Covay and The Goodtimers)
TTITLE25=(Where Are You) Now That I Need You (Don Covay and The Goodtime
TTITLE25=rs)
TTITLE26=Teen Life Swag (Don Covay and The Goodtimers)
TTITLE27=The Popeye Waddle
TTITLE28=One Little Boy had Money
EXTD=
EXTT0=
EXTT1=
EXTT2=
EXTT3=
EXTT4=
EXTT5=
EXTT6=
EXTT7=
EXTT8=
EXTT9=
EXTT10=
EXTT11=
EXTT12=
EXTT13=
EXTT14=
EXTT15=
EXTT16=
EXTT17=
EXTT18=
EXTT19=
EXTT20=
EXTT21=
EXTT22=
EXTT23=
EXTT24=
EXTT25=
EXTT26=
EXTT27=
EXTT28=
PLAYORDER=
